<?xml version="1.0" standalone="no"?>
<!DOCTYPE svg PUBLIC "-//W3C//DTD SVG 20010904//EN"
 "http://www.w3.org/TR/2001/REC-SVG-20010904/DTD/svg10.dtd">
<svg version="1.0" xmlns="http://www.w3.org/2000/svg"
 width="106.000000pt" height="106.000000pt" viewBox="0 0 106.000000 106.000000"
 preserveAspectRatio="xMidYMid meet">
<metadata>
Created by potrace 1.14, written by Peter Selinger 2001-2017
</metadata>
<g transform="translate(0.000000,106.000000) scale(0.100000,-0.100000)"
fill="#000000" stroke="none">
<path d="M445 964 c-62 -15 -113 -37 -135 -57 -14 -13 -37 -31 -52 -41 -57
-37 -85 -152 -59 -242 6 -22 5 -36 -2 -43 -8 -8 -8 -11 0 -11 13 0 12 -17 -5
-47 -17 -31 -15 -72 8 -139 11 -32 21 -61 21 -64 0 -3 9 -5 19 -4 12 0 20 -6
21 -15 2 -47 8 -64 28 -92 20 -26 23 -45 25 -120 l1 -90 240 1 c212 1 238 3
220 16 -56 41 -57 43 -52 103 2 31 12 71 21 88 15 30 23 60 25 91 1 6 10 12
21 12 16 0 37 22 38 40 0 3 6 19 13 35 20 53 17 121 -9 148 -12 13 -19 27 -15
30 11 12 13 65 3 92 -7 19 -7 24 2 19 8 -5 9 -2 3 12 -4 10 -11 37 -16 59 -10
53 -19 75 -30 75 -5 0 -9 6 -9 13 -2 48 -250 148 -325 131z m355 -439 c-7 -9
-15 -13 -19 -10 -3 3 1 10 9 15 21 14 24 12 10 -5z"/>
</g>
</svg>
